<?xml version="1.0" ?><svg id="Layer_1" style="enable-background:new 0 0 91 91; fill: #257a74;" version="1.1" viewBox="0 0 91 91" xml:space="preserve" xmlns="http://www.w3.org/2000/svg" xmlns:xlink="http://www.w3.org/1999/xlink"><g><path d="M36.9,51.6h11.6V39h0v-5.7H36.9V51.6z M43.4,35.5h3.4v2.8h-3.4V35.5z M43.4,41.1h3.4v2.8h-3.4V41.1z M43.4,46.7h3.4v2.8   h-3.4V46.7z M38.7,35.5H42v2.8h-3.4V35.5z M38.7,41.1H42v2.8h-3.4V41.1z M38.7,46.7H42v2.8h-3.4V46.7z"/><path d="M51.9,51.6h4.5c0.3,0,0.6-0.3,0.6-0.6v-8.7h-5.1V51.6z"/><path d="M46.3,20c-12.6,0-22.9,10.3-22.9,22.9c0,10.4,7.2,19.6,17.2,22.2L45.1,77c0.2,0.5,0.6,0.8,1.2,0.8c0,0,0,0,0,0   c0.5,0,1-0.3,1.2-0.8l4.3-11.8c10.1-2.5,17.4-11.7,17.4-22.2C69.1,30.3,58.9,20,46.3,20z M60.4,51.1c0,2.2-1.8,3.9-3.9,3.9h-7.9v0   h-15V29.9h18.3V39l8.5,0V51.1z"/></g></svg>